# xmcd
# 
# Track frame offsets:
#     150
#     22850
#     41125
#     62917
#     83290
#     98840
#     123255
#     139187
#     160132
#     176152
#     188720
# 
# Disc length: 2720
# 
# Revision: 16
# Processed by: cddbd v1.5.2PL0 Copyright (c) Steve Scherf et al.
# Submitted via: BonkEnc v1.0.8
# 
DISCID=870a9e0b
DTITLE=Kenny Chesney - When The Sun Goes Down
DYEAR=2004
DGENRE=Country
TTITLE0=There Goes My Life
TTITLE1=I Go Back
TTITLE2=When The Sun Goes Down
TTITLE3=The Woman With You
TTITLE4=Some People Change
TTITLE5=Anything But Mine
TTITLE6=Keg In The Closet
TTITLE7=When I Think About Leaving
TTITLE8=Being Drunk's A Lot Like Loving You
TTITLE9=Outta Here
TTITLE10=Old Blue Chair
EXTD=
EXTT0=
EXTT1=
EXTT2=
EXTT3=
EXTT4=
EXTT5=
EXTT6=
EXTT7=
EXTT8=
EXTT9=
EXTT10=
PLAYORDER=
